<?xml version="1.0" ?><svg id="Layer_1" style="enable-background:new 0 0 512 512;" version="1.1" viewBox="0 0 512 512" xml:space="preserve" xmlns="http://www.w3.org/2000/svg" xmlns:xlink="http://www.w3.org/1999/xlink"><style type="text/css">
	.st0{fill:#F5F4EF;}
	.st1{fill:#D7D5C1;}
	.st2{fill:#DB3429;}
	.st3{fill:#F7C9AB;}
	.st4{fill:#E96B4E;}
	.st5{fill:#EF917B;}
	.st6{fill:#B3271E;}
	.st7{fill:#57130F;}
</style><g id="XMLID_1_"><g id="XMLID_4876_"><path class="st0" d="M507,394c0-62.4-112.4-113-251-113S5,331.6,5,394c0,62.4,112.4,113,251,113    S507,456.4,507,394" id="XMLID_4890_"/><path class="st1" d="M451,394c0-44.7-87.3-81-195-81c-107.7,0-195,36.3-195,81s87.3,81,195,81    C363.7,475,451,438.7,451,394" id="XMLID_4889_"/><path class="st2" d="M436,281v75c0,55.2-80.6,100-180,100c-99.4,0-180-44.8-180-100v-75H436L436,281z" id="XMLID_4888_"/><path class="st3" d="M436,281v3c0,55.2-80.6,100-180,100c-99.4,0-180-44.8-180-100v-3H436L436,281z" id="XMLID_4887_"/><path class="st4" d="M456,181c0,53-4,118-26,130c-22,12-25.6-29.3-43.5-23.5c-13.8,4.5-17.4,49.3-37.5,56.1    c-16,5.4-30-34.5-46.5-31.6c-22.8,4-14.5,50-46.5,50s-23.7-46-46.5-50c-16.5-2.9-30.5,37-46.5,31.6c-20.1-6.8-23.7-51.6-37.5-56.1    C107.6,281.7,104,323,82,311s-26-77-26-130c0-55.2,89.5-100,200-100C366.5,81,456,125.8,456,181" id="XMLID_4886_"/><path class="st5" d="M456,181c0-55.2-89.5-100-200-100S56,125.8,56,181s89.5,100,200,100S456,236.2,456,181" id="XMLID_4885_"/><path class="st2" d="M256,40.2C236.6-9.7,186-6.6,186,50c0,56.6,70,95,70,95s70-38.4,70-95    C326-6.6,275.4-9.7,256,40.2" id="XMLID_4884_"/><path class="st6" d="M301,5.6c-0.3,52.2-35.3,96.2-83.2,110C236.3,134.2,256,145,256,145s70-38.4,70-95    C326,23.4,314.8,8.6,301,5.6" id="XMLID_4883_"/><path class="st0" d="M256,168.8c9.2,0,16.9,10.2,16.9,22.2s-7.7,22.2-16.9,22.2S239.1,203,239.1,191    S246.8,168.8,256,168.8 M256,151c-19.1,0-34.7,17.9-34.7,40s15.5,40,34.7,40s34.7-17.9,34.7-40S275.1,151,256,151L256,151z" id="XMLID_4879_"/><polygon class="st0" id="XMLID_4878_" points="308,151 308,231 326,231 326,177.5 342.5,195.6 359,177.5 359,231 376,231 376,151     359.8,151 342.5,169.1 325.2,151   "/><polygon class="st0" id="XMLID_4877_" points="204,151 204,231 186,231 186,177.5 169.5,195.6 153,177.5 153,231 136,231 136,151     152.2,151 169.5,169.1 186.8,151   "/></g><g id="XMLID_4680_"><g id="XMLID_2671_"><path class="st7" d="M256,286v-10c52.7,0,102.1-10.2,139.2-28.8c36-18,55.8-41.2,55.8-66.2h10     c0,29-21.8,55.4-61.3,75.2C361.2,275.4,310.2,286,256,286z" id="XMLID_4228_"/></g><g id="XMLID_2669_"><path class="st7" d="M235.3,285.5c-70.4-3.6-131.2-24.9-162.7-57.2l7.2-7c29.3,30,89.1,50.8,156,54.2     L235.3,285.5z" id="XMLID_4227_"/></g><g id="XMLID_2668_"><path class="st7" d="M256,512c-67.7,0-131.5-11.9-179.5-33.5C27.2,456.3,0,426.3,0,394     c0-31.6,26.2-61.2,73.9-83.3l4.2,9.1C34.2,340.1,10,366.5,10,394c0,28.1,25.1,54.9,70.6,75.3C127.3,490.4,189.6,502,256,502     s128.7-11.6,175.4-32.7c45.5-20.5,70.6-47.2,70.6-75.3c0-27.5-24.2-53.9-68.1-74.2l4.2-9.1c47.7,22.1,73.9,51.7,73.9,83.3     c0,32.3-27.2,62.3-76.5,84.5C387.5,500.1,323.7,512,256,512z" id="XMLID_4226_"/></g><g id="XMLID_2667_"><path class="st7" d="M256,461c-48.9,0-95-10.6-129.7-29.9C90.6,411.3,71,384.6,71,356v-50h10v50     c0,24.8,17.8,48.4,50.1,66.3C164.4,440.8,208.8,451,256,451s91.6-10.2,124.9-28.7c32.3-18,50.1-41.5,50.1-66.3v-50h10v50     c0,28.6-19.6,55.3-55.3,75.1C351,450.4,304.9,461,256,461z" id="XMLID_4225_"/></g><g id="XMLID_2560_"><path class="st7" d="M256,367c-21.1,0-27.6-16.8-32.8-30.4c-4.4-11.5-7.6-18.5-14.6-19.7     c-5.3-0.9-12.2,7.3-18.3,14.5c-8.2,9.7-17.6,20.8-28.9,16.9c-13.1-4.4-19.7-20.8-25.5-35.2c-3.5-8.7-7.9-19.5-11.9-20.9     c-4.3-1.4-7.4,2.2-13.2,10.2c-6.1,8.6-15.4,21.5-31.2,12.9C60.1,304.7,51,262,51,181c0-46.3,57.7-86.6,143.5-100.3l1.6,9.9     c-38.9,6.2-73.6,18.6-97.9,34.9C73.8,141.9,61,161.1,61,181c0,32.6,1.6,59.4,4.7,79.6c5,32.3,12.9,42.8,18.7,46     c7.3,4,11,0.2,18.3-10c5.7-7.9,12.7-17.7,24.4-13.9c8.5,2.8,13,13.8,18.1,26.6c5,12.4,10.7,26.5,19.4,29.5     c4.9,1.7,11.9-6.6,18.1-13.9c8.2-9.7,16.7-19.8,27.7-17.9c13,2.3,17.9,14.9,22.2,26c5.8,14.9,10.2,24,23.5,24s17.7-9.1,23.5-24     c4.3-11.1,9.1-23.7,22.2-26c10.9-1.9,19.4,8.2,27.7,17.9c6.2,7.3,13.2,15.6,18.1,13.9c8.8-3,14.4-17,19.4-29.5     c5.2-12.8,9.6-23.9,18.1-26.6c11.7-3.8,18.7,6,24.4,13.9c7.3,10.2,11,13.9,18.3,10c5.8-3.2,13.7-13.7,18.7-46     c3.1-20.2,4.7-47,4.7-79.6c0-19.9-12.8-39.1-37.1-55.4c-24.3-16.4-59.1-28.8-97.9-34.9l1.6-9.9C403.3,94.4,461,134.7,461,181     c0,81-9.1,123.7-28.6,134.4c-15.8,8.6-25.1-4.3-31.2-12.9c-5.7-8-8.9-11.6-13.2-10.2c-4.1,1.3-8.4,12.2-11.9,20.9     c-5.8,14.4-12.4,30.8-25.5,35.2c-11.4,3.8-20.7-7.2-28.9-16.9c-6.1-7.2-13-15.4-18.3-14.5c-7,1.2-10.2,8.3-14.6,19.7     C283.6,350.2,277.1,367,256,367z" id="XMLID_4200_"/></g><g id="XMLID_2559_"><path class="st7" d="M256,150c-0.8,0-1.7-0.2-2.4-0.6c-3-1.6-72.6-40.5-72.6-99.4c0-32.3,15.4-46.7,29.8-49.5     c14.3-2.7,32.9,5.1,45.2,27.8c12.3-22.6,30.9-30.4,45.2-27.8C315.6,3.2,331,17.6,331,50c0,58.9-69.6,97.8-72.6,99.4     C257.7,149.8,256.8,150,256,150z M216.5,10c-1.3,0-2.6,0.1-3.8,0.3C199.3,12.9,191,28,191,50c0,47.2,53,81.9,65,89.2     c12-7.3,65-42.1,65-89.2c0-21.9-8.3-37.1-21.6-39.6C287.1,8,270.4,16.9,260.7,42c-0.7,1.9-2.6,3.2-4.7,3.2s-3.9-1.3-4.7-3.2     C242.6,19.5,228.2,10,216.5,10z" id="XMLID_4197_"/></g><g id="XMLID_2558_"><path class="st7" d="M256,389c-40.6,0-79.1-7.2-111.3-21c-32.1-13.7-55.1-32.4-66.3-54.3l8.9-4.6     C108.4,350.3,177.8,379,256,379c61.6,0,117.6-17.2,149.8-46.1l6.7,7.4C378.5,370.8,320,389,256,389z" id="XMLID_4196_"/></g><g id="XMLID_1179_"><path class="st7" d="M256,236c-21.9,0-39.7-20.2-39.7-45s17.8-45,39.7-45s39.7,20.2,39.7,45S277.9,236,256,236z      M256,156c-16.4,0-29.7,15.7-29.7,35s13.3,35,29.7,35s29.7-15.7,29.7-35S272.4,156,256,156z M256,218.2     c-12.1,0-21.9-12.2-21.9-27.2s9.8-27.2,21.9-27.2s21.9,12.2,21.9,27.2S268.1,218.2,256,218.2z M256,173.8     c-6.3,0-11.9,8-11.9,17.2s5.6,17.2,11.9,17.2s11.9-8,11.9-17.2S262.3,173.8,256,173.8z" id="XMLID_3126_"/></g><g id="XMLID_1108_"><path class="st7" d="M376,236h-17c-2.8,0-5-2.2-5-5v-40.6l-7.8,8.6c-0.9,1-2.3,1.6-3.7,1.6s-2.7-0.6-3.7-1.6     l-7.8-8.6V231c0,2.8-2.2,5-5,5h-18c-2.8,0-5-2.2-5-5v-80c0-2.8,2.2-5,5-5h17.2c1.4,0,2.7,0.6,3.6,1.5l13.7,14.3l13.7-14.3     c0.9-1,2.2-1.5,3.6-1.5H376c2.8,0,5,2.2,5,5v80C381,233.8,378.8,236,376,236z M364,226h7v-70h-9l-15.9,16.6     c-0.9,1-2.2,1.5-3.6,1.5l0,0c-1.4,0-2.7-0.6-3.6-1.5L323,156h-10v70h8v-48.5c0-2.1,1.3-3.9,3.2-4.7c1.9-0.7,4.1-0.2,5.5,1.3     l12.8,14.1l12.8-14.1c1.4-1.5,3.6-2,5.5-1.3c1.9,0.7,3.2,2.6,3.2,4.7V226z" id="XMLID_3105_"/></g><g id="XMLID_505_"><path class="st7" d="M204,236h-18c-2.8,0-5-2.2-5-5v-40.6l-7.8,8.6c-0.9,1-2.3,1.6-3.7,1.6s-2.7-0.6-3.7-1.6     l-7.8-8.6V231c0,2.8-2.2,5-5,5h-17c-2.8,0-5-2.2-5-5v-80c0-2.8,2.2-5,5-5h16.2c1.4,0,2.7,0.6,3.6,1.5l13.7,14.3l13.7-14.3     c0.9-1,2.2-1.5,3.6-1.5H204c2.8,0,5,2.2,5,5v80C209,233.8,206.8,236,204,236z M191,226h8v-70h-10l-15.9,16.6     c-0.9,1-2.2,1.5-3.6,1.5s-2.7-0.6-3.6-1.5L150,156h-9v70h7v-48.5c0-2.1,1.3-3.9,3.2-4.7c1.9-0.7,4.1-0.2,5.5,1.3l12.8,14.1     l12.8-14.1c1.4-1.5,3.6-2,5.5-1.3c1.9,0.7,3.2,2.6,3.2,4.7V226z" id="XMLID_3077_"/></g></g></g></svg>