<svg viewBox="0 0 128 128" xmlns="http://www.w3.org/2000/svg"><g data-name="Champagne"><path fill="#cccccc" d="m30.994 76.038 3.8 1.25-11.868 36.099-3.8-1.25z" class="fill-cccccc"></path><path d="M61 29.59 47.28 77.71a14 14 0 0 1-17.07 9.11l-.6-.18A14 14 0 0 1 20.69 69L38.2 22.09l14.71 4.84Z" fill="#cccccc" class="fill-cccccc"></path><path d="m27.67 56-5.08 13.59a12 12 0 0 0 22.77 7.57L51.4 56Z" fill="#fe9f59" class="fill-fe9f59"></path><ellipse cx="21.02" cy="112.76" fill="#cccccc" rx="2" ry="11" transform="rotate(-71.8 21.03 112.762)" class="fill-cccccc"></ellipse><path fill="#cccccc" d="m109.426 112.146-3.8 1.25-11.869-36.1 3.8-1.249z" class="fill-cccccc"></path><path d="M98.94 86.64A14 14 0 0 0 107.87 69L90.36 22.09l-22.8 7.5 13.71 48.12a14 14 0 0 0 17.67 8.93Z" fill="#cccccc" class="fill-cccccc"></path><path d="M100.89 56 106 69.59a12 12 0 0 1-22.8 7.57L77.16 56Z" fill="#f593c1" class="fill-fe5959"></path><ellipse cx="107.53" cy="112.76" fill="#cccccc" rx="11" ry="2" transform="rotate(-18.2 107.51 112.759)" class="fill-cccccc"></ellipse><path d="M38 53c15-2 13.38 3 13.38 3a23.78 23.78 0 0 1-17 1.8L27.67 56c2.33-2 2.4-1.94 10.33-3Z" fill="#fe852b" class="fill-fe852b"></path><path d="m100.89 56-6.71 2c-5.68 1.52-17-2-17-2s-1.55-4.83 13.45-2.83c7.9 1.05 7.93.83 10.26 2.83Z" fill="#fe3838" class="fill-fe3838"></path><circle cx="36" cy="73" fill="#fe8c38" r="2" class="fill-fe8c38"></circle><circle cx="40" cy="66" fill="#fe8c38" r="3" class="fill-fe8c38"></circle><circle cx="36.5" cy="80.5" fill="#fe8c38" r="1.5" class="fill-fe8c38"></circle><circle cx="27.5" cy="71.5" fill="#fe8c38" r="1.5" class="fill-fe8c38"></circle><circle cx="91" cy="73" fill="#fe3838" r="2" class="fill-fe3838"></circle><circle cx="87" cy="66" fill="#fe3838" r="3" class="fill-fe3838"></circle><circle cx="90.5" cy="80.5" fill="#fe3838" r="1.5" class="fill-fe3838"></circle><circle cx="99.5" cy="71.5" fill="#fe3838" r="1.5" class="fill-fe3838"></circle><path fill="none" stroke="#e6e6e6" stroke-linecap="round" stroke-linejoin="round" stroke-width="2" d="M58.13 31.63 54.5 42.38M70.75 32.12l3.62 10.76" class="stroke-e6e6e6"></path><path fill="none" stroke="#fe3838" stroke-linecap="round" stroke-linejoin="round" stroke-width="2" d="M64 11.17v6M54.8 15.13l4.24 4.24M73.54 15.13l-4.24 4.24M17.5 103S12.06 88.29 24 89.5c16.5 1.67 41.33 37.75 53.25 13 6.87-14.27-14.11-13.9-13.75-4.33.67 17.83 38.64 9.29 48.25-1.92 7.44-8.67-6.25-8.75-6.25-8.75" class="stroke-fe3838"></path></g></svg>