<svg viewBox="0 0 512 512" xml:space="preserve" xmlns="http://www.w3.org/2000/svg" enable-background="new 0 0 512 512"><path d="M262.826 53.283h28.239v120.978h-28.239z" fill="#f0b4aa" class="fill-defffe"></path><path d="M134.279 214.754H69.932c-13.466 0-24.421-10.956-24.421-24.421 0-13.466 10.956-24.422 24.421-24.422h64.347a24.42 24.42 0 0 1 15.601 5.667 5 5 0 0 1-6.403 7.681 14.4 14.4 0 0 0-9.198-3.348H69.932c-7.952 0-14.421 6.469-14.421 14.421s6.469 14.422 14.421 14.422h64.347c1.855 0 3.677-.362 5.416-1.075a5 5 0 1 1 3.796 9.252 24.157 24.157 0 0 1-9.212 1.823zM232.375 133.294H71.665c-13.466 0-24.421-10.956-24.421-24.421S58.2 84.452 71.665 84.452h160.71c13.466 0 24.421 10.956 24.421 24.421s-10.956 24.421-24.421 24.421zM71.665 94.452c-7.952 0-14.421 6.469-14.421 14.421s6.469 14.421 14.421 14.421h160.71c7.952 0 14.421-6.469 14.421-14.421s-6.469-14.421-14.421-14.421H71.665z" fill="#ffcdda" class="fill-04bfbf"></path><path d="M338.895 269.519c-14.885-19.952-23.648-37.794-26.048-53.031-.145-.921-.893-1.628-1.86-1.758-6.23-.837-11.221.869-14.832 5.076-5.895 6.868-7.265 19.595-3.49 32.422 2.653 9.013 9.646 18.123 12.648 21.752h6.467a5 5 0 1 1 0 10h-70.891c-4.989 0-9.048 4.059-9.048 9.048s4.059 9.048 9.048 9.048a5 5 0 0 1 3.361 8.702c-1.469 1.358-5.324 5.896-5.324 10.346 0 4.989 4.059 9.048 9.048 9.048a5 5 0 0 1 2.841 9.114c-2.078 1.455-7.926 6.627-7.395 11.051.543 4.522 4.563 7.932 9.352 7.932a4.999 4.999 0 0 1 3.047 8.963c-1.733 1.354-6.268 5.829-6.268 10.084 0 4.989 4.059 9.048 9.048 9.048h44.175c20.879 0 41.855-4.555 60.872-13.195V308.89c0-10.554-8.788-20.533-16.541-29.337-3.107-3.528-6.043-6.863-8.21-10.034z" fill="#d83c63" class="fill-004358"></path><path d="M486 166.095H157.593c-11.58 0-21 9.42-21 21v226.7c0 11.58 9.42 21 21 21h267.234l40.423 30.598a16.235 16.235 0 0 0 9.82 3.319c2.471 0 4.958-.568 7.276-1.721 5.578-2.773 9.043-8.366 9.043-14.596v-18.3c9.059-2.354 15.61-10.5 15.61-20.3v-226.7c.001-11.579-9.42-21-20.999-21zM373.646 376.352a5.001 5.001 0 0 1-2.833 4.506c-21.099 10.145-44.626 15.507-68.039 15.507H258.6c-10.503 0-19.048-8.545-19.048-19.048 0-4.419 1.818-8.322 3.925-11.359-5.367-2.861-9.229-8.134-9.985-14.428-.667-5.551 1.881-10.417 4.775-14.021-5.589-3.323-9.342-9.424-9.342-16.384 0-4.302 1.531-8.133 3.307-11.131-6.164-3.158-10.392-9.577-10.392-16.965 0-10.503 8.545-19.048 19.048-19.048h51.859c-3.544-5.066-7.604-11.89-9.677-18.93-4.778-16.24-2.672-32.24 5.496-41.757 5.789-6.748 14.227-9.759 23.754-8.474 5.386.725 9.566 4.789 10.405 10.113 2.117 13.445 10.501 30.282 24.247 48.69.044.06.088.121.129.183 1.82 2.68 4.584 5.817 7.509 9.139 8.481 9.631 19.036 21.617 19.036 35.946v67.461z" fill="#d83c63" class="fill-004358"></path><path d="M408.753 392.9h-32.106c-7.168 0-13-5.832-13-13v-85.187c0-7.168 5.832-13 13-13h32.106c7.168 0 13 5.832 13 13V379.9c0 7.168-5.832 13-13 13z" fill="#ffcdda" class="fill-bedb39"></path><path d="M31.096 282.49c-2.101 0-4.213-.482-6.184-1.462a13.772 13.772 0 0 1-7.685-12.403V251.67C9.71 246.801 5 238.315 5 229.249V69.957c0-14.708 11.966-26.673 26.673-26.673h238.959c14.707 0 26.673 11.966 26.673 26.673v82.391a5 5 0 1 1-10 0V69.957c0-9.194-7.479-16.673-16.673-16.673H31.673C22.479 53.283 15 60.763 15 69.957v159.292c0 6.444 3.605 12.197 9.41 15.012a5 5 0 0 1 2.818 4.499v19.865c0 2.154 1.495 3.13 2.137 3.45.642.319 2.322.922 4.04-.378l32.712-24.761a5.003 5.003 0 0 1 3.018-1.013h50.324a5 5 0 0 1 0 10H70.813L39.44 279.67a13.799 13.799 0 0 1-8.344 2.82z" fill="#d83c63" class="fill-004358"></path></svg>