<svg viewBox="0 0 128 128" xmlns="http://www.w3.org/2000/svg"><g data-name="Layer 5"><path d="M107.32 59.51v26.77a7.7 7.7 0 0 1-7.7 7.7h-12.1l.08 12.58L67.38 94h-18.1c-4.25 0-8.43-3-8.43-7.29l25-15h24A9.17 9.17 0 0 0 99 62.52V51.81h.6a7.7 7.7 0 0 1 7.72 7.7Z" stroke="#d83c63" stroke-miterlimit="10" stroke-width="6px" fill="#ffcdda" class="fill-66b8e2 stroke-0088ce"></path><path d="M99 30.61v31.91a9.17 9.17 0 0 1-9.17 9.17h-24l-25 15v-15h-11a9.18 9.18 0 0 1-9.17-9.17V30.61a9.17 9.17 0 0 1 9.17-9.17h60A9.16 9.16 0 0 1 99 30.61Z" fill="none" stroke="#d83c63" stroke-miterlimit="10" stroke-width="6px" class="stroke-0088ce"></path></g></svg>